/* XPM */
static char *_399_442fa2489c2e5eada2eb445f4dd12327bb889fdef5ea81420c34ec24602d70a8[] = {
/* columns rows colors chars-per-pixel */
"128 128 56 1 ",
"  c #18130E",
". c #1C1711",
"X c #1E1913",
"o c #221B16",
"O c #261E18",
"+ c #281F19",
"@ c #27211B",
"# c #2C221C",
"$ c #31251F",
"% c #2E2620",
"& c #2F2822",
"* c #332721",
"= c #362923",
"- c #3B2C25",
"; c #362E28",
": c #3E2E29",
"> c #3E3027",
", c #37302A",
"< c #3D322B",
"1 c #3F3631",
"2 c #3F3934",
"3 c #412F27",
"4 c #402F29",
"5 c #46332D",
"6 c #49352E",
"7 c #47382F",
"8 c #48382F",
"9 c #433630",
"0 c #4C3730",
"q c #453933",
"w c #4E3932",
"e c #443D38",
"r c #4E3F38",
"t c #533C34",
"y c #583F37",
"u c #543F38",
"i c #4E413A",
"p c #544037",
"a c #594037",
"s c #55423A",
"d c #5B433B",
"f c #5E483F",
"g c #61473E",
"h c #61483F",
"j c #554740",
"k c #5A4740",
"l c #574942",
"z c #5D4A43",
"x c #624D45",
"c c #634F48",
"v c #665047",
"b c #655149",
"n c #6A544B",
"m c #6E584F",
"M c #6D5951",
"N c #715B52",
/* pixels */
"nNNNNNNNNNMMnbzMMMle,iznmbbbvvvvvvvvvvvvvnvnmc5kzkurrrlcvvvvhcz0*qcczxxxhxxxxccxcxxk<ezczzzzcxzu9cxcxczzj9qlczcczzzzzjj1zzuuzzje",
"mNNNNNNNNmNmMczNMMns,sMNmbbbnvvvvccnnnnnnnnnmNd5rrsuuzczgggggyyt+enchgkxxkgxghgkkgdgq9cduuujuyrk9ukuusssy99zzjuyuuurttt9zu9wzww0",
"fgfggfffggxgbtwkfxnk>vNfyyyyyyyyyyyyyyyytyyyygg4tuyudyyyygyyttty*2cwwttytyutyttuttwd0ek0ww0rww0yu<u00000t0-kwwwwwwwqww00ww:qy000",
"yyyyyyyyytt0k90wtfbx=zxtyyyyygaayyyyyyytttttwty6u0ttyyyyyyyyttt0#:u0ttttyttyttyyuyty490wwww0ww0tu;0ttt0t0:%0wwwwww0wutw0wwqqtwww",
"yyyyyyyyytt0t46wwtcx*ustyyayaaaayyyyyyttt00000t65wwyyytyyyttttt6#+4wwwtuttyyyytyuwwu-500wwwwwwwwt0-60ww00=+*50wwww6yt0wwwtwwtwww",
"yyyyyyyttw06w3-00wus#wyyyyayyaayttyyttttt006666055wwwwwttttt0000#O=5wwwwtttttttww0ww=65000w00w00wyq54:455=+4q0tww50t0w0twww0wwww",
"tttttttt00050w3305tu#<uuytyyyytttttttttt00666656w55wwwwtt0ttt0t0#%:-5w0wwwtwwtww00094056660000660wu5-64:-+#ryw0ww6wwt0wwwtww0www",
"tttttt66069040y345ww+:ttyyytwwtttt0ttt0t006655555w55wwwwt0000t06#*9<=-50ww00060000w<555656556666050r:4665+#q0ww005ww0tt0w0www0w0",
"tttw00006066556t:40w+-tytttt0t0twtwwtwt0w065555555056ww0ttwt0wt6#*065:*-45060456566:55555565556555500:555#+600wtt300t0t0t0wwt6w6",
"ttttt00066665555q-5q+-wwwwt0t0t0wtww0t0t06655655555--4500000tw06#*655555---5554655-4555555555555555454-66#o900wwt63t0t00twwww6w6",
"tttw0000666605550540+-t0ttwt0tt0t00ttt000655555555:-44--40w0ww06%*56555056-455-36::5555556555555556550:*4#O900ww00-5t00t00wwt5w6",
"wwttt6000666555659-:O:wwwwt0t0t0w0tw0wt0066555665-*55665-*5tww06#*555555554-50334=565555555555556555555-+oO9000wtw656tt6wtwww056",
"tttw00060666665550=O+30w0t0t0t0000www000665566465#55555664--6t06#%955555556*455-*465565555655556555555564o+96qww06606w06wwwwwt63",
"twtw000000666355555++30wt0t0t0t00000000056554664--555555566-*-65#%555565555**04$4555555555555655556555655#O9660wt50030w6wtwwww06",
"ttww060606666555040-o3t000tt0t006656666665556444:555555565666-$-@%5565555554#44-6555556555555556555555555#o:560036y33t06wtwwt000",
"www0066006066555405-o3tt0t0t0066656656555564*+*4-4555555555566-+O*9555556555$*456555555555655555565555555$o-5555633-5tw6wwwww006",
"6666566666655555055-O;90006666656555556564*=:44*$55555556555555*o;9555555556-$406556465555565555555555556#X%;:556633550460066565",
"65555655555555554054o*545955555555555604*$466654=46556555555555-o*95555565564$455556655555555555655555555#X=55556666545455555555",
"5555656555555565556-O*56565665555555553$$56655565=55555555565554@%95555555564*455466555555555655565555655$o285565556533366565555",
"5555655555656555666-o*4655655555655563+*665555555--6656555555554O#<5555556555#455664555655556566560566565$o<65566666w43666666656",
"5553555353556655466-O+:45455553555555#$5545555545=-5555555555554OO:4555555545*=55554555455355566666666565$o:55666600063006666655",
"**33-3-333-333-3---*O+--4-443343---3$#:3-------:4*+4----4----4:*Oo-:::---33-4-$3--:4----:-33>335365355355$#=:5333536033666555443",
"++$*$-***$**$$$$***$oo$*******$*$**$+#=$***$$**=**o+************oo$*****$*****#$$=*****=*==3::53333666565$$=3535336663336555644-",
"$++$$$$$$$$$$$$#$$$+OO+$########$#$#o+@##+##++++##++++$#$$######OO####$#$+$#$$+#####+++#$$$$$$$$--$$$$$$$$$$$$==-----3-**3-*-**#",
"wyyyttwwwwtpp8ppwwwqrprq5599554-$#$<q71<:=#+O+*56665:454554445455rr6654644:--35q544*#o@$;=*=->555355555157ee865>>-$$$=>56690095*",
"nnnvvvxxhghhvhhghzzzzzzzdxzzzkzk5=zbczzzjs:+@qzcchku9ccccccxxxzkccckzkzzzzu-:xbbcxku:@;dffp=qzfxvhzzfzffzvbbvvvzs5#@$ebnvxxzzks5",
"xddagydgggggddddddaaaaayyyuyyyyxwpxyipwwwe0+;lzyyyyy5ckdyyyyydyykyyyyuyyyyx4qnyyyuttw#qzddx57xaaaaaapassaaaappydf=@<nnfayyyytyut",
"daagygyyaayadgagaayyyytttyytuyyk58ytpwtww09=%jutuuyw<dtyyyytytyttuyuyyyyytx4qgtyttt0w#9dptfa*hayytytapapttytytyh6O,Mxpttyytyyyyy",
"gaagggyaagyggyygdaaatyyytyyyyyfww68ytttww04$#rtuyyy00yytytyyyyyyyyytytytytf*qfyyttw0w#5saaag-taaatytptattataatap$=bdtyyyyttyyyyy",
"yaaayaagygaaygyaaayyyytyyyttyttugy56yyttw63O#q0ttyw0utuyyytttttyttttytttty5*tywytt065+5uyaygt8gaaatytataatattyt3#sppptyttyyyyypy",
"tyyaaaaagyayyyyyyyyyyttytttytwfytyw-3wwww04++6wyywwtyytyttytttttytttttttyt=0yywytw064O4dyyygawdaytayptattatyyy8$8dtatyyyyyyyayyy",
"ttyyaaaayyyyyytytttttttttyyw5fytytyt6504504+o40wwwyytytttttttttttttwtttwt=5twwwww006-O4utytgatdaayttyataytyytt5-ptttyttttttyyyyt",
"wtttyttttyywtttttt0tttttttt3yyttyttttt003*-+o5wwtyyyttttwtt0t0ttwtww0t0t4-t00000666*#O>ttyyyttyytttttttytytttt--ttwtttttttytyytw",
"wtwwtwttwtwytttwttt00ttt0t5ytt0tttttttt00*o++0ttyttyytttw000000000000006*606006666$$=O<rwtwy0wttwwwttwwtt0t00t-*6ww0ww00060w0twt",
"wwwtwtwwwww000wwt00tt0t0t00t0ttttt0tt00606o.%wwtttytyttw0000666666666664=06666556$$6;o:wwwwt5ww08w6w000ww00w00-$**56666660600tt0",
"twt6555333333333350w0t0tw4wwt00000t0t00060+.;wwwtttttww06666565665656564-5655555#$65=o;twwwt5606666606666666066554--5656656600t0",
"63--50ww0t0wwwww6533540ww-60t00tt0t0t00066*.=wwwwtttt0006565555555555565:555556-*554$o;qwwww04506565565665655656556--55556566000",
"530ttwwww0twwwtwt0t0tw430-wwwtt0t00tt00666*.=ewwwt0w00655555555555555555555564=4:55+oX;066w6w-5555555555555555555555$46655555666",
"uwwwwwwwt0t0wtwwtwwtwww4**ww00t00t000t0665%.=wwwwwww006556555555555556555554--45--*-$X;066665-50555555555555555555564-5455555566",
"t0wwwwwwwwwwwwww0www0000*+5w0t0tt0t0000056*.%e00www0055555555556555555554=-=4566*-55$X;955655=94555565556555565555555-4555565555",
"5000wwwwwwwwwwwtwww000605+3wwwwwwwww000564-.%990000666555555556555555555*5566556-555$X=955555*405555556556555555565555--65555556",
"5566600000000000000066660=*00wwwwwww005065:OO99006065565555555555555505435555556-554$X%955555#=465655555555555555555655--6555555",
"55565555655563664655564454+365565656555555:Oo<555565555556555555555555--55555564;554%.%955555*4=356655556555555655655556--555555",
"65555555556566636556556650#*66555565555555-OX:555555555555655555505555455556564*4555%.%<55555+40--63655655555556555555555-455655",
"54543534335333354445543555*+55435345454444-OX=:444544454544544445445545454554=*4044-+o+-45335#=55$35343445445444544554545--55445",
"------------------*===**--=O=-------------*o.%=----------------:--------=-=*#*--=--*+oo**---:$o:3$$-----==---4-------*---**-----",
"-***-************#+#*+#$=*=#O=************%oX+*=***--***-********#$#******##===**=**+.o%$=*=*$o#*$#-*****$$$$*****$******$#*****",
"**********$*****$#+++++#****#+************#OXO%****************#$#++#****$+==**=**==%oo+$****=#X$*#$****$+++#$$**$******#o******",
"#ooooooooooooooXoXXoXXXoooooO.ooooooooooooooO@ooOoooooooooooooo..XXXoooooooooooooooXo@oo@oooooooXooXooooXXX..oooOOoooOOOoO+ooooo",
"w69991945>#;>59<,*#oo$,590999qq95494=+;<<5<9ee<=;=qqqqqqq695<;;*+o#-9999q-;9991478757ii-#=,<<57qq7,;*#=#@oO;59<*#*45ewqwrre64<-$",
"ccccccccxxy5lxzzdi7#,ivcxxxgzzzlkkkju-zczzkxzjurqzccczccghggkjur9#rkczxzsrnnmnvnhmhgffvf7pvzxvvxbxfpqizr<#,cbbcx:6gxczkhzzzxxzkr",
"yyyyyyyutyg6>sytr68$1zsstyttututtuwtr<krtttyutr<wkttttttttttuww46#rksytdrskuuudyaagapppfi7fppaaapptw7zyt:O9lssyfu:uyyyyyusuuutt0",
"tttyuytyytty30ytt6t$<piptttwtttwywwyu-uttwtwwt54twwtttwttttttt055%<uuuyy6yttuytyattatatad78aptytyta65yt6:+=rwuutu5*yuttytytytytt",
"yyytyutyytyyt3yyt85$-it8ttttttttwwywd66uttttty46tttttttttt0ttt054O:uwttt6yyyytytttatatatsdq8tatytya5wtt6:+#qwtutyu-5ytytyytytytt",
"ytyytyyutyytt5w6668$-8wwtttttttwtttwtw:wtwtttt50tttttwtt0ttttt05-+-wwuy0tttttytyattattttptat88yytw8tttt8:##70wtttyw4tttttttttttt",
"yytuyytytt00ttt03$3$$8iwt0tttttttwttty45ttwwtw6wtttttttttttttt03-+<qwww5tttttttwttttttttttttpt5568ttttt6:@#500ttwwy65ttttwtwwttt",
"tyyttytw66yyyttyt3$$;8ttwwtttwttwtwtwy03twwwt06ttwttttttttttt003-@=56w66wttttttwttttttttttttwat35ttwtww04+#590wwwtww3ttwwttwwwtw",
"tyyyyywtywyttyytt63$;qq8twwwtt0ttwwwwww36tw0w66wwwtwtt0ttttttt63$#$565665twtwwtwt00tt00twtwwwtpt63ttwww04+#999wwtwwt33twwwtwwwww",
"tyyyyytyy0ttttwtw55$=977wwwwt0ww0wwwwww63w00w46w0wwwtwwttt0tt06-$@#>386t5tww0t0ttt0t0t0twttwwttwt5$66tw0:+O5500wwwww0*4wwwwwtwww",
"tttyyttt06twttwtw53$#577606w000000w66www33w0640000000wwtt0t00053$@#9qttt56twt0t00t0tt0t0w0wwwwwww5$836t05o#1590wwwww6333wwtwwwww",
"tttttw0w65t0t0tww33##37760w66w00006ww34333ww5*w6000000000000005-$@>it8t6050w00t00t0000000t0twtw6t60t03w04+#<360tw0tt63y33ttwwwww",
"wwtw0060666600w0w33#@>55606ww66w606w54653-4w-$06006000000000005-$#5q866tw03tt00006000t060000w0w60600t3504+O94600t00003w6*000w000",
"wwww06665666660653$#@-1766666666000636000644#*66660600600000005-#o,956600w6356006w6w006w6w00wwww660tt5304++45500t0t0w-30*3000006",
"wwww00545556666653$#@=13666666w666634w660604-466506606066606605*$@;5566666w$3350655650665666606ww30ww5004O+54566000t633-*5066666",
"wtww0655655555565-=Oo;<9556666666044666605505950565666606006665*#o;5>595050-05596566566645666660650wt040:O+<5<000000-06*995:5655",
"wwww0665555555594-%@o;<<5656566665-66666565655:5565656600050004*$@;555555503-0555546645566556666040w0w56:O@<<549550=:549965:=565",
"www00656555655645=*oo*<5555565656:466565655555-4655666655006664*#@=1555555554555655555555555555604500006-o+1<59555*=555555555*55",
"w0066555555555644-*oo;<9555555556=5565565555504-65565565555055-$#@=<555555556555555556555555556664406665-o+::4405*-64656-5556:-6",
"55655565555546665==Oo;:4555555555-6555555555556:-6555555555555:$@o=1<55555555565555640405555555554-55554=oo---95*-056456::6556--",
"55555555655566464-*Oo*1<555555564-55655555555555=4655556555555-##@;5<55555555555555504055555565556-46555=oo==3:*-04950554-55555*",
"55555555556564564-*Oo%44555555555-555565555555554$555655555055-##o*>5555656555555504555555555555654-6564=o.+*#=5040556666-465565",
"55655555655564664=*oo%--555555556-*65555556555556=*65555555555:*$o#;;555555555655040405555565565556*4654;o.O&:554040644654*55555",
"44-44444444:4:44;**o.@**:4<:4:444-o=45::-44444:44-o-444:444:4:-*%OO**44-4444444453333:44:44444::4444#-4-$oo;1::44:44444444-$444:",
"-****-=*=**--****#@o.O@#***-**==*-#.#***-***=**-*-+.*******--***#oo#$*=;**==**=*$$$=****==****;*==*=$o**$oo;**;**-*==*==-*-#$=**",
"$#$$$+###%#####$#OO.o+@+####$######X o#$##########$o.#*#####+###+.XO++#####$#####$#@oo+$#$$$$$####$#$oo$#oo+O#####$###+###%#+#$$",
"#+o+$$$$++#%$*-====:925:<-=*o##%*==:;*$#Oo...o.o+#%***#$**-**-=-;:>:-=*==***$$$*#@@oOoO+#***+O#%$$###$###*;-**#%$$+$#$%**$$$#+oo",
"ir5$:065-9ssssuuiiskkkkjsujsw$4dzkjdjjee9;O.X#<9eiskdujuussjdkyupdjdsssrwwew00quiq5$#*qiqq09--wpdsrrsskkjkkkussputuwtwwwrrrqwe4*",
"ssjk55ru0rcksissjsssjusssssscu:xkuuruuu0q9-o%rjikssukkkdkyjyuduysssdssssjsyuskssszf,#ejsdsssq-dlsskkzkzzzkzkjkkdkkklksjjususuuw9",
"kuukz99utrzdssysddysjyjyduduskttzudjuyurq4-@,lrwukukuuudykydukyysssdadsddsyjukkuiwf5$psddasuf45gsusuuysyyyksuudsdyudykykyyudssq5",
"uyyuyurruryuyuuyuuyuyyuytuuyyuy0wdyuyur0q4*+eierutuyyuuuuuyuyuyyuuppuyuyuuuytttttwsw#isssyuyyy-yhuuyuuuututuuyuuuuuuyutuyuyuuyw0",
"ytyyttyttwtyytytytyyytytyytytytyw0yyytt006*o-w0wtyttytytttytttyyyytyttytyttytttt0ty0*tyyytyytyt6yyttytytytyttttyyyyyytyyyyytyytt",
"tyttyyytw0yytyyyyyyttytyytytyyytu00ytttt06-+*50q0tttytttytttttttyttttttttyttt0t0t005#5tyyttttytyttyytytytyttyyttttttytttyttyytyw",
"ttytyttt00ytyttttttttytyytttytttty0wtttw06-#%46q0twtttwtttt6tttttttttwttt0t0tt0t0t05#5tytytttytyt0ytytyttytytttttttytyyttytytytw",
"ttttttttt0tytyttytttttttttyttttttyyw00ttt4+++4q60twt0twt0t00t0tttw6twwwwt00000t0t003#4tttttttttttt06t0tyttttttttttttttttttttttww",
"tttttwttw0tttttttttttttttttttttttttt05-564+.%1500twwtwtwt0660t0060twwwww00000000w004+:rwttttwttttttt00000tt0ttttttttwttwtttttww0",
"twwtwtttt0ttwttwtt0ttt0tt0tttttttwtttt55w6-o#9990wwwwwww00560656600wwww006666606000-+-twt00tttwtt0t0ttt000000000wtttwtttwwwtwtw5",
"0wwtttw000wwwtwwttt00ttttt0t0tt0wttw0t00w6-OO<550ww0wwww0055546600w0066666666666665-o=0tttwtwwww0t0tt00ttw00w00055333555655633$$",
"wwww0wwt00ttwwww0t0tt00t0tt0t00twwwwt0t606-Oo=440wwtwwwwt4*-56666666666656555556565-+*r00t00twwwt0t0ww000t0twww0w53--5w660-*335w",
"wwwwwwww60wwwt000wwwt0t0t000t0ww0twwwtw066=Oo%*-5wwwwww6:%-655566565656655555655564-o=rwwwwwwtww00t0000000w00000660665606$-5w655",
"00w000w06t00000000w0t0000t000www00wtwww055*OO-;*450w0654550555553655553655565555554*o*90wwwwwwww0t0000006660606666565534-$565555",
"655500w030006600666600000000000000w0ww0w54*oO<9<;%**-566555555555555365556555555565=o*90wwtwtwwwtt006666666566566555556-$5555556",
"4----44-306666665666666660060000066666005-$OO<9964;%4655555556565556655555555655664=o%90wwwwwww000006666565655555556556-*5555555",
"w65654-*366636365656565656565050550566555:+.@<<155555555555555555555656555555555554-o#960ww0w00006666636555555555555556445566555",
"55555504565365565555555555555055555555555:*o@<<<55554556555655555655555555566565554=o#166000000066663636556556555555655346555565",
"555555044556655565555565555555555055555554#oO<<<45554655565555555555565565553565554=o#966666066665655566655555555555555465556555",
"5655053-+55635555555655555655555555555555:%X@<<:55554555555555555565555555556536564*oo<65556555555555555555565565555555-65555555",
"4545:*-5**55555555565555555555555555555554+o@:;;45554555555555555555555555555555554*oO:55555555555555555555555555555654*46555555",
"*+O#$4556$:6556555555656555655555555565554+oO;--45554555555555555555555656555555554*oo;555555555565555555555555565655---*-655555",
"5:--44444:*444444:444444:4444444::::44444=+oo#*%-:::*4:44:4:4::-5:5:::445::::5::44:%oo%:44::444433334333444:544-4-----444---4:44",
":-----*-*-**-*-**-*--*-*-*-**-*-*--=-=====#oo@##*--%+====-=------*===-=*-*-*-*-**:%#oo**=--*--*-*-*-*-*-*-**#OooO**--*-;--*#$---",
"$+$+#O#####o######+#$#####+%##$########*##+oooo@@##Oo+##################++$+########oo##########+%+%####+#OoX.oO######+#####o+$#",
"ooooooooooooXXXXooo.oooo..ooooo+@OOOoooOo+OoO%@ooooO+OOOooooooooO..OXXOOOooOoooooooo+%%oOooooOooooooooooo.o+OoX.oooooooooooooooo",
"2e6eerreewwe9<#;<9999-%+oo#;1999q99eqe990e0ee12:;919qq5:1<991,:%OOOo*12:;*##$*;:44:11211,,;:;;;;:;:;:-4411<<=O.%;:,:,,91<1519:=%",
"zcczzzkkzkjjkzu4ksjjrr9*O#9jziurrrssuukddujkcruuezkujujusiuiiiu6-oO6jjuurre;9jrujjjjllujjuurruuurrrriuuussij4%%9jkljjujuiirrrrr4",
"yyuuyyuyuuuytuxrukttww54o%jzuuuuyyttyuyuuyyyggttyxyyyyytuuuww005:%%jjrt0tty04rduruuuujujyyyyydddssuuyyuuwuuuw*#iliutttttrtuwur65",
"yuyytyuutytuytyw0dttwww5o%jyttttyttyyutyytyytgt0kyyutyttttutt005:*;rrt0t00ww5;er0000ww0000ttw0wwwwwwww00wwwwt:#ir00w0w0wwwwwww00",
"ytuytyytytyyytyw5ytttww0+#rrttyttytyytyttyytyyt6yytyytyttyttt006:**e0wt00t0t06:0t00tw0t00t0twt0wwwwwt0wtwwwwt-+qr0wwwwwwwwwwt000",
"yytuytyyyuytyyy65ytttww5+%0rttyttyyytytyyttyty05yyytytttytyttw004##4rwr0t0t0t0650ut0wtwwt0t0wwt0wwwwwwwwwwwww-+90wwwwwwtwwt00t0t",
"tyytyyyttytyyty46ytttww5+#qwttttttttytyttyttty60ktttyttytttwtw004%@100wwt0t0wwt44wwwwwtwt0t0t00twtt00twwtwt0t-+4ewwwtwwwt0t0wt0t",
"ttyttttyttytty64wytttww5++qwtttwttttwywtttyttt6yyttytttytttttw005#+50eww0t0twwwt44wwwwww000t0t00www0t0ww0ww00-+4wwwwwwww0t0tww00",
"yttttytyyttyyt4ttttttww4+#qwtwwtwtttwttttttttt6ywtttwtwtttwwwt004%+5wwww000tt0wtw--wwwtwtt0tt00twwwt0t0wtt0t0-O40wwwwwwww0000000",
"ttttttttttttt5wttwtttww9+#0wwtwwtwwwtwtt0wtwt50ywtwtwttw0twtwww04#+50wwwt0t0t0wwww-4w0000000t000wwww0www00000-O40wwttwwwww000000",
"ttttttttttttw5tt5wtwww05++9wtwtw0ttt0tt0ttttt3t0t00tt00t0t0t0t004$+5wwwwwwwwwtww00t--606666560000000000000060*O:ewwwwwww00666666",
"0t0t0t0tt0t00twt56wtw004++9wwwww00t0t0t000t660t00t0000t0t0ttt0064#O49wwwwwwwwwwwt00t5000000654606066600066666*o:0wwwwwww00666565",
"00t0t00000ww0wtw58www003O+9wwwww0t0t00t00t650t000000000t00000006:#O:9wwwwwww0tt0t0000560606066566665666666656*o:6wwwwww006655655",
"0000000000ww50ww5tw60003+O9wwwwwt0t00t0t055tt000066000t00tt0t066:#o:56wwwtwwwwww00060655666555666565656566556*o;60wwww0066655555",
"66666666w66055w556w66653OO5wwwww0t0006653000000565656600t0t000654#o:55wwww0tww0066666664456655555555555655555*.;9600000666555555",
"665666666666450556666653XX:5www006653536006605655666666060000065:@o:956wwww0000066665656544455565556555555555$X-9650006655555655",
"555565555556455456665653oX*4555665556666665655055555566660066555:#o;55666000066665665555555444445555555555565*.;1950565555555555",
"555555556555:$4456555563oX+*-66666665655655555555555656666666655:+o;9456666665665555555555555544::56655555555*.;5555555655556555",
"5555555665564+4555555554oX;e959655555555555656555555555656565555:+o-4555665566555555555555555565554:455555565*.-5555655565555555",
"555555555556--5555555554ooqe406455555555555555555555555565655555-+o-55555555555555555555555555555555-+4055555$.-4556555555555565",
"555565555555455556555554oO1q5665555655556555555555555556655556554+o*445555555555555555555555555555555*.:65555$.*4555555555555555",
"55555455554-455555455554oX&:455455535555554555545555555555444554-+o*-455555555554555555555555554555455#.*5555$.#-454555455555555",
"----------**----::-----*oX+*------------------------------------=O.#$*--------------------------------:O.#:--#.O#=--------------",
"**********$*****$$$$***#.oo#************************$***********$o.o#$**********************************..+**OoO#**************$",
"####+#+++#+#+##+###++##+oXO++$+++####++###+++####+#+#+######+###+o.O+++#+##+#++#+####+##+#++$++++$$++#++#..O#o.o+++###+#+#++$+++",
"++++++++++++++++++++++++o.O+++++++++++++++++++++++++++++++O+OO++oo.o++++++++++++++++++++++++++++++++++++#o.oOo.oO+++++++++++++++"
};
