/* XPM */
static char *_962_3c16257e24fb08693e8c90c8bd22354cd2e2d615aa04d9dc3ac4dd109c210786[] = {
/* columns rows colors chars-per-pixel */
"128 128 48 1 ",
"  c #2C312F",
". c #2E3433",
"X c #313635",
"o c #323837",
"O c #353B3A",
"+ c #393E3D",
"@ c #3A403F",
"# c #3D4342",
"$ c #3F4846",
"% c #414645",
"& c #424847",
"* c #454C4A",
"= c #484F4E",
"- c #49504F",
"; c #4D5453",
": c #4F5856",
"> c #505755",
", c #525857",
"< c #525758",
"1 c #555C5A",
"2 c #585F5D",
"3 c #57605E",
"4 c #59605F",
"5 c #61645E",
"6 c #5A5F60",
"7 c #5C6362",
"8 c #5F6867",
"9 c #5F6868",
"0 c #606765",
"q c #616866",
"w c #696A63",
"e c #626768",
"r c #646B6A",
"t c #686F6E",
"y c #67706F",
"u c #69706F",
"i c #686F70",
"p c #677070",
"a c #6C7372",
"s c #6F7876",
"d c #707776",
"f c #717877",
"g c #737B7A",
"h c #77807E",
"j c #79817F",
"k c #7A8281",
"l c #818A89",
"z c #8C9795",
/* pixels */
"22<;$O;1t044422221077871,2s3=#X@:p9rr871;:<::1733333:1331611$#o#:1111<1111,,,141422141114;--=$+$6par97977rsr877:-==:62770ww00574",
"<71;&O=1t74221122020771>>4s4=@.#:aeee87711<1:773333:3:::63:;$#O;ssairrrq0trtaduuqtttrwteq8773:o$7pp9777768r71<1*$$$$:11704554541",
";;;;%O>2w8442157770221;;;7s1$#.#:p99rr777711:7773333::::::-:$#o6skghhsspuuasuuuuytyrprurrpsr7-o$6777:;;***===-=#@@+@$;-*=-**-**=",
"$***+O>7r0412577772111;;;0p4;#.O:p993777771::7:1333-:6667::1$$O1pggsp8:----;>>,,;;<1711111rt7-o#;;-$***$*&$*&&#@@+++@$$#@#####&#",
"+++OOO>0e744447771111>;;:893-#.@:a7;778777717::6377:97313:61$#O;9sga97-:;=*--;,;;;,;4<;::,78<;o+$#######+#++++OOO+O@O+#O++++@@@@",
"1;==#+>0q744247041<,;--39798;#.@:p7-;789797::::::3:7763:13::$#O-qssy73::;;-;>>;;;:;,1,,;>;78:=oO#$&%$##@+OOOX#;;:616666622111141",
"re02-@1qe74444444,>;;;74:388$@.@:p9771799971::::--1776311::3$$O=qfa971::;;:,;;;;;;,;11::;:771-O$>211<;-=*$$OO1rpriiiipddaitattut",
"ti5>*@1qr74411441,>>,481-:38:@.@;999993997777:-:7973131:::37-#o-8ga87:1:;:;;;;--;;;:31,:<<481#O=8asye9988<$+#1eghgddggggdadaaaau",
"eq4=+#10w0221441,,;,,344::43;@.@*8399y99rr877;:89733111::::1*#O-8ay8971<:;;-==*--;-;3;--::7p$#O-2farq00rre-##;7ssrqq7wwutww87tq0",
"671%+@,0t02145441,;;,4113173-@oo$$$*$*-$-:**=&;:-;:$=***==$$$#o-7ayr96<:-==&**---;;;:==-;393$#o;<r07170rre,@O;<r837140rrq0777844",
"62>%+#>0ae2144513;-;:1313,7,-@o@@@O@@@@##@#@@@@@#####@O#@#####o-7ay411<-*&$$$**;;;::;*-;:13;#.o$>r7112000r>#O;<r9748qq0q77777742",
"21-%+@10ae6144442>;,,,13:181-@ooooooOOoo@ooOo.Xo .. .... ..X.oO&7a8<771*$$$&---;,1,:==:;::$###.#1p7212444r>+O;;ee878088777777212",
"11=%+%10ae313444,4>,1111:177-@.o@@$#$#$$$**-*---$:-*$#OO@#$$$$O$7uq7611;==*=;;-:<1,<;-;:::$::#oo#8r412400r>++=>rr7888411443312<<",
">1*%+#>0ar1>,4244,,,,1111:73-@o;yayrqrq79999qtyupp9p7:=$$77:=&@$4ue1<12:;;::::::,::<::1::-7a:#.##*08474400-++=<w87888444431741<1",
"11*%+#20ar1>,1444,,,1111:37:$@o;azksy737ssggsayy977799:=:787**#$4uq1121<:<<;;;:<;<:<111:;;pp-#o#;;87777700=+O*>re74271144333111<",
"16=&@#20ur3:,>,11,1,1111337:$@@:rls1:=$=338711::;;:;::;<1317*$@#1eq2121<22;;:;1:;::1131;-799-#o#>814227007&oo*>0841121323311:111",
"0w,&+#,0yq1:,>,44,14,444,,4,=@O;7hr,4:*;;:;:<:;;;::;::111177;&#$3e021111:*$-,,,,,,,3,4,,=17r=#o$1a0;,14400*oo*;073443,1133314740",
"22>*+@,0tq1,;,,,,44133>-;17,=#O;3hy177==;;;;,;:;;<::61117766=$@&3q7><12<&#&;<,3,,,34,,,,;47r=@o#1uu0,14700&o+&;781113,444440q887",
"12,*+#,4u71,,,,314,1,;-13171=@o;1fy311;=-;;:11,::,11<1176771-&@$4q41122;-*;143,,3,,,,,>>;17e*#o#1w05r52507&+o&>7q11133444474443,",
"172=+%11rq3<1111,14,1,1311q3=@o-4ay1,:;<;;;;31<1,,<<11171:1:-*#$7t41211>>,44744,,44,,>;-:119-@o$1u05502001&+o=;08111377443433111",
"102=+@;1tt1111111,13313147y7=@X-2ae,,,,<:;::171:,,:<::676;-1-$#$<e612>;;-11431<<1,1:,,*;:199-Oo$1pr0550001&OO=-4711447744334144,",
"202=++&,7qq887111,444qryypr1*@o=2py7771133348a-:441367779997-*O#;777221<--44;=;64733,&$31799$#o$1wrr00wr0,%+o==0t7788rq844474444",
"001*++%;111,;-*--;>,147431,;$O.&1q84331773311q==:::;;::17771;$@O;qrr872:*;1:;;;;1,1:$@*;:697$#o#>twud0405>&+O=;771<1,,;=*-*&--4r",
"-=>*OO#*-;-*$##@@@@@@#@###@#@O.#***#$$%#$##$#$$###@@##$**&=;*###;3<;&##OO$##########@@@#$$$$$+o#*,11,--->;=@O*;;---=-&&#@@@@@@*>",
"+#@@OO+%%%###@@+@++OOOOOooooOoXOO+%%%@++O+++@OOO@OoOOO@@++O+OOO#*$$#@oo.oO@@+OOO@O@OOOOOO@OOOoo@###O###***%+O#@#&&&##@OO@O+O@@@@",
"+OOOOOOO++OO@OoooooooXoO+O+@+O.XoXo##%%%$+#+OOoXXXoX.oOo.XOooOOO@@##@+#######O++@@@@@@@@OOOOoX.ooooXOOoO@#+OOOOOOOOoOOOoooOOXO@O",
">>><>;>>;===--==*--;*$;;;;371;oo+O*115062<11<<1>;;;##O##&>211176774422547777>;2211:,111,,-=*#ooO&=72;;=;>>1;%=----==;-=&&@*&@&&-",
"tttir004114qq0446976<&-217rwe:OoO*17rtigdasaasitpsf>#@oOtggfgsaspayrt00rr0217tpuaaaauday888:$oO=1pgs74esafp>>ttqeq778722>@@#&-4r",
"pgkkgdtaareagaauittu7&2etifge;Xo-20ppeewreppttuuapge##.o7ffrq8787777442401>700etyyyttay011y:$o$70ggrreaaagt-4afapaaurrw8;+O%>7eq",
"8rgsft8qure70e7787ere;67rrta7&o#<eie41147600qrttttt<:#oo1sa4444774111,,>>>>,,11231478748778=@o&1ere6e78e0r1-quutpatr4181*O+-,w74",
"q887774787872744778er27ererr<$O$17e41145470qqtrrqt113#@.,ut413347411,>>,>>-,111>,1,,,>,477r=@o$1pe7661<147-1rtretrtq714,%OO-784r",
"731333311377477qe8err<27erre;#X$>78127050r0rrqrrqe,8:#@.;eq144777311,,>>;;>,>,1>,1,,,4,4874&Oo#<py262<>223;877errtr0011-%+@=7714",
";<113,333333344qreeit7;67er2*OX%<e667qw05wrrwr00r014;#O.;r7>11134,,3,,>--->>>>;>>>>>>;:<67-$#.O;rt06262<21>020etre0742,*#O+*22,,",
":<::3:,33,3343347eerrr62661;%#O@<ie67www0rrerrr0qq71*#@ -q7;,:,<,>>>,>->>;>>>>->;>>>>;;::::=Ooo$qr76277751=<06ere0021,>&%++&11>>",
"::::3:,,3333744,67rrrrre6<:=$$O@6rr60wwwwqqtrrr0q841*$@.-r4;;;;,>;;>>>>;>>>>>>>-;;>>>>;=;:1;#.o=782217815>-;12505551,,,=#++&3,>>",
"<,::,,:3:333448466eeriiei6<-*$O@;rr97w500wrwtre78741=#O.-r7;,<,;;;>>>>>>>>,,>;->>,1,,>;=;11:#oO-70211161,;;>>1265251,14>%o+%,,,>",
"::,,,,,,3:334488rttrirteri6=&$O@;ee7005wwruurr777743>#OX-00>1><<,,,,,>>,,,,>><2<55552;;=;:6;$o#-8r1312115,*->><1222,><4>&O@&;,,;",
",<,33,,;:::3333rrtttrrirei6;&$O@<ie70000qttee07074141@O.=00>>>,,,>;,->,,>>,,1<525,521;;;:61;$O@-0q11114111>-12211<111<01%O@&;,,,",
",33,,,,;::,,:,33rrtirriier9;&#O@6ee700000teee76743104#O >0r622,>,-&-,22,2,,16665505072:666:-$O#-8711111111<=,112121>>>4,#O@%-3,,",
",,,,,,>;-::,:::327eiritiirr;%@o#<ee60r5547qe766211402@O.=0611>11-@#-,,,,,1225<<<15226:<16<-=$.#=77111111122>>,1222>;==,,%O@&;,3,",
">>>,;;;;:::,::::<779erriirr6&Oo#>q047w5044772722217q7#O =<&@+O+#@+@%%#%#@#%%#%####%%%%%%#&*&+oO*781,,,,134441;1121,,,->=@X+%;1>>",
">>;;;>,,::1,:::::777rettrii9&#o#>r00q00447428762127q7@O XOXXXXXXXXoOOOOXooOOOXXoOO++++++O@@@ooo@,7,,,,131,147;>1141,,,1>@X+#;,>;",
">>>;,;-;-:::::::1110prtrerpr;#O#,r0q00477477772117471#o.%%&&*&&==*===;==******=OX%<<6<<<-**&@.oO&,,,,1<,,,144,;,1241440-@o+%;1,;",
">>,,:,>>:,::11111178tsarrrri<$@#1rtr05472470747477771Ooo1te77667442261161111166##rgggdawyrrr1oO@*,,11,,,,,144<;;1<1444q>@++@;,,,",
",,4,>>>>,,,::3311270rrrrrtrr7$##<rpt7722720004447067>oXX>dkdr8888989ee0e8e8805-@#qkgaaii99r3*oXO;41,,,;:,,1221;--;14004,#O+#;,,,",
"1,,,,,,21,,13337787eeeretruy1*@O>edr7277270w04470077>XXX=ik517737799ee76777te2*@#7gae5657771$XX#781::,:<,,,111,:11110541#o+@;>,,",
",,,,>,11113337877777ee0e08ri<*#@;0a07776260007707600*OOX=rr;;;;11333131613160>%+#2ie6<<23377*OO$774;;:;<,,111,,,12422555%O+#;>,,",
",;,124111133787786670e0080pr<&#@;0a07000270w42400002%&@X&0e-;;;<1113111672272=%O%2r82<<21777$O@$773,;,>;>,11,1115254125,%O+#>5,>",
"3133,13,167777773788787777ri<&@O=700e00020w02600e002+%oX*24=;;,131<1,33388433-@@@2t0>>222771*O@$7741,;;;,,1<>1125525,70,&++%,411",
"1333>34,2717777777yre800eeri<*OO-7rtt00e500w5000rr0=XOoo*45;;,17333:333774433;@O+1t0>2266274*@@$4843;:;,,11<,1225425,10,&+o%,1,1",
"3344444777787773779rrtrrrrwu1*+O-0iitt0720w0000rre0&X*%o&171<1343733348473334>#O+1r0<2227177*O@*181,,:;;<1<<112245551>21;%o%1333",
"7784883427007777:378rrrtreta7=+O=7iitr7e5000000ee02@o#+O=27<111<3333444873434-@X%1r7>2727137&O@*,4111,,,1112255500557,>;;*O%1777",
"rq71174420000055770rritrwwu01&+O-efteee0770wrrre002%*Oo+=4r,31;;1343433454313=@X#1e7>172<;11&O#;;4844344477855554440401&&@o&3788",
",1444747000<><<-==;>><<>>;-&%@+O=0arrtre88000eee702<<oX+=4w1,;-;<371;;;444151=@X+1021762;=1,&oO-,,<>,,;-===*==-==;->>>>-&@o&3711",
"##%%&####%%##@+#%++%#######@+Ooo=0gt021e0000077707;1<+XO-4u71;;,173,;>,444144=@X+1721761=;7:&oo&-;=&%@@@@@@@++@++@%%%&%%@oX**###",
"OooOoOOO+ooO+Oo++++OO++OOOoOOXXX=6e;;=;0800007770<;w<+o+-1y431,,3744448454114=+X+276172>;<4:$OXOOOOOOXXX.XoO+o+ooXXXXXooXXX@OOOO",
"==&%%@@@+oXX++#%%%&*---;;,>>-%+o&;;&&&1777q00877<<2e<#OO=10044444480054543151=+X+1222021<<71$X.O+OOOoooO+o+++oo+#%%*%***&o o*=-=",
"7071,>,;&+oo-<>>111137rwuuuu>@@X$=$$%-77qqq0eee2<62e1#OO=2trrqr85q45445533133;@XO>0226721177$X$7841;***&%%>>%=5522470ree0*X#5rqw",
"rrt08484-+o+=w5,2211448tuuat=@+oO+%*&4q0ee08762277681#OO*2drrr08q5504451,,,15,#XO-6226627376%o&7rire71>15>5>=5550eertags0*X#qyre",
"0tryrr3,-#o+=5;>,,>>,,,8qrt7&@+XO$;>7rrrr078266777172+oO&<iwrr0w8q855451>,,11-%Xo;6117773177&O#:8011;=>15>>=5>>5112217iw1*X@7t8q",
"qrrr87,,=+o+=5->>,1;,117qq83%@+X#;7tr80072260ee06769<#OO&>t000005545421>>11,1-%Xo=6<77781,74*O#-17,,;*;;=5>55,>>1,,,1100>@X@1778",
"337743;,*+o+%>>>;>;;;114787,#@@o$4ryrqr877060ee77679:OOO%<e047478448541>,,4,1-@Xo>027081:173*O#*<411;=;;=>>>>>>>,,,,1174-+X@;434",
",13441;>*+o%#*>>;;;;-1<1171,&@@o%1rrrqq727070ee87667:OOO%>r21477q544525,11545-@Xo=62803,,377*O@*341,;;;;>>>>>5>>>>,11142=oX@-:,,",
",3113;>;*+o%%=>>>><;;,,,13,,&@@O%1prrqq46770rtr07667;#oO%>r22237444415,1,5,>5=@XXO>106<:;177*o@*11,,<,,>>=>>>>5,,>,12141=+o@;:11",
"5,>,>>;;*+o&>11,,11:;;:<1<<1&@#O%7trw007777errp97766<+X+%>72225244432222211<2=%XX+%506<;;<71*@@*31:,,,11>-;>,,5>>>>55151&@X#;11,",
">>>>>;;;&@o%>177<31,:;;<::17&##O&0t00076218r97977666<#XO%<022525443352225<>20=@ o*2062;;;17:$oo$3:11111,;;->,,,,>>>=,14;@Xo#=>>1",
">-;>>>-;&+o&>813,<1<,;::;111&#+O*7rwwe7227err9996165>+o+&<02222241356<65500tt-% o>e512;-:17;$o@=:1:,1:,;-;;;,,,>5>->,,5>@.X@-,,,",
"->->>>;>&+o&;1,>,:;;,;,:;:<<&##@*0t00e7770e878731<65-@Oo&=&&&%&&%%%&%%%*&**>2>%.O>r1<2;-:17*@oo$;11,,,1;--;;,,>>=>>-;;;%O X@-,;-",
"-;>,>>>>%+o*-2>>:,1::,<11,;;&#+O*2re077700073793::77>#OX%#O+++++@+++++O+++++#*# o>01,>>,1<;-O.oo#:41::;--->>>;>,>>>>>>,=@.X@=>--",
"-;;>>>,-%+o*,4>>,,11,,,11;;;%+#O=1ere6700r077773<177*@O XXoXooooOXooXXXX..X.XXX O>01,>,11:,,#Oo@-,=;---=-;;;;>;>>>>>>,5;@XXO&;;-",
"--;,>>>;%+o*>1,-;11,,,,1,;;:%#O#=1rte80wr0067363117:##O.#*&*%%%&&%%**&*&%%###%+.o>511211:,3:#Oo$14,;-1,-*;;;,>;>>>>---5=@oXO#;;-",
"-->>>,>;=++%>41>-,,<1<,,,,:;&+#O=1te000000077613137:#@oO2rr04111,>;,5525<551<>=Xo121221,131:$Xo$41,,,3:--;,>;>;;>5>>,>;&@o.o#=;-",
";>:;;;,-&++&,5,23;;33:-;11:;&##O=4t88q8777767773737;@OO#7y847443<;;;2222<5222<% O>227215131:$OO=44,>>>---;;,;;;:;,1;>><=#oXo@*;;",
":,:;:;;*%++%,52431,,,;,,71,;$#++;7tq8082:1777776377;##O+33:1,311:;<1<1111<>><>% O161221,111;#XX$44,>>>>-=;>;;;;;;>>>><2*@OXo@*;;",
";,;;;;:*%@O*51143:,,344411,:#@+@;7qq0071:6676777777:#+O#11<::,,,1<1111,11<<><<# +>21>111:61:#Xo$44,>>->-=-;,,;;-><<<1>>@+X +%=-;",
";;;;;;-*&+O&2522,,334433<,,;##O@;7880772:3761776713:##O#311;;:,,<1<<<211<<<<<-+ +<211,,12:1;#XO$41>>>>>>;;;:;-;><11>==&+XXX+%-;;",
";;-;:;:-*@O&4433334843,,<1,,*#O@;0re7e77766616777622&#O#111;-:,111<11,>1,>>,<=+ @<5<>,1,<11;#..$71,,,>>--;>,,2>>,1;=125-+Xo@*;;;",
";;,,,,3-&@O&q43447733,,3<<13;#OO;0e877766761:1:12227*@O%11:;=;<,1:11,11,,>>,1*+.+>2>,111<<1=#X.$51,>,>>-;;11,241;;=1247;#Oo@=,>;",
"3,,4,3,-%@O&4w344411,11,<371;#O@;q8722777716::<12177=#O#,,;;-;:,<17:<11,<<>,,*+ +15,1,1,11:&#Xo=74,>>->>,>,,,14,;;<1155>@+o#;1,1",
",334,>;-&@O&48443311:,,,1771=#O@;re66260761<::111766=#O#:;;;;:,111<:>>51112<1=+ +,4,,,<<11:&#.O$772>->>>>>,,1144>;2212w>@oo#>514",
"311,<11:%@o%55111<:11<<3477<&#O@-ee72177721::,111447;#o%1,>;:,,,11:,1<11,<111*+ @24,,,,<::;$#.o$75,;->,>>,1<31162,;1120>+Oo%>221",
",1343131&@O&22111<;;:117477,##@@*8tq727747<,,131388r,@O#11<>;:;,31111:;,111<1*+.+>4>;>;;-:1*#.o$05>;>,,,>,11117771<>;<8;#OO%-21,",
"14414771&#o&2221111<,<774771*#O@*7q80721111<<1714q7t,@O%1,-;,,<1,<1,,>,11<<11-+ O,0,;;;*$67$$.o#44,>>>,,,,:<116637:;>17>%oO%;<11",
"43431141&#o&>221711113133431-*O@*8q8rq841716778848qr;#O#4;;,<,<<1,,:;;,3<1111-+ @,04;;:1173-#.O$77>,>,,,,,::<<<<177,>17>%o+&=205",
"44726471*#O%2512171671133311;;O#-0rreqq84448871:8qry;&O%8021112111:-,44441411=+ $3r97434773-$.O=00471,1,,,4,--::;;,;;<71*OO&;447",
"0q0008e1=%O%0re6788;**-144181,@#>7ee888tuuy7;#:qeeyu>*O%rfir8000,-;7q8780qr0,=+ &7r94441673:$.O=rrr07441141,;::==1133777*+O%;777",
"e877876;*#O#>22-==;=$$$$;,1431@@;;>67747q7;##-31;;,,=*+*7r21;;=&#-:,=**-;;;;==@.#;;;=*&&=--=#.O-qyyyeq844311:$$1317788t0=+o%;8re",
";--;;;;*%#O@*--*$##$$$#$$*;;;,@@*=>;;;=**&&#&*****==&@o#;==&%$#X+&*&&&&&&&%&&&O O#####@O++##O O=004043<,;**#@+;<-;;-=;11=+o#*-;-",
"####$#%#@@O@$$$@#@#@@@@@#$$$**OOO#$##@@####@@@@O+O+OoooXOOOOoOo.oOOOOOOOOXoOOo. .......X......X$***%##$%#+oXXO#$#$&##$&**+o#%%#%",
"Oo@O@OOO+OOOOOOOO@@oooOooOOO@OOOO+O@#@+@#@O@##$*===-;;;-&@$*;*O#,1:1<>;;;;=--;;=&**=*%@OooooX..XoOoXooooOXOOOOOOOOOOoOO+OooOOooO",
"-=*-#O&;;--;;*$#@&&$$**-----;-O*17,,<121<1*&*;7yuffgfaq477qte1+rkgssapitypryputytuputree1;=&#oo&;---;;;=*-;>;-*$$%&**$@@&*=;-==-",
";:;;&O,uir76677<348tpspyp9r97*O1pgttrrtrrpy71;qytfggka;qgf071;O7kksrtisgssaprertuuppipsgpt87:OO1udsr776121112<2--2278<#->1;;>;;;",
"rpq-&@>uy38999rruuur87771198=#O<pa2774777q07811qrraat11agr27=&+7hs722<6ereqe007777772277qyar2#O1tggareq777770000<epft;#>tr776rte",
"gft=*@>u4;<111174,33313371;7&#@1tt22117777777417qrr722rt0112=*+6gy26666ereqereq800877211270r1+O;8agae7314478erte27r71=*8tureragg",
"ffq*&@,a8;13<11:,,;:,,137877%#+>0r21147qqq00tqrq414<18ee6212*&+2gt12777ee078q877477211268267>#O;2ipq41;<1147ee7211211;1q0rrttdff",
"ff8$#@1sq1111<1<,33313:37778&$O;7t7228qq7q07qqq8774727722111&$+2sr7870778877741121422<72677r>#o;7tr411,<1172721222211<800rttifff",
"sf7###>a71,1<13,,11:;;<17777&#@=2i7270er0727777777411221113:$$O>ft0772778e77431111111147377p;#O-7r7111,,121,11125222367799iiagsa",
"aa7#+#>r7<11<,1--;;;;;;;<777*#O*1a02800re878777773113421<17<&$O*ar766778ee77131111111134:37p;#o;7r8<,,,11>111552222217679pppappi",
"tr<%@+>r7<<231,;;;;-;;<;1377$#O*1a8470eer0rr97771377411177r7&%o%te26727er7824111,,<<11736679;#o;2r7<,111,5115122265267779pppriti",
"07>&++>011121,;,>;;:21;;1773$@O$,p770errrrrt176<74111117epp1$$o#t02278e714043111,:,;11731639;#o$1r011<,,>,>5555165223677rprrprtt",
"ur1&++>72111111114222<;2133*@@.$<r7770qtrrt021:781<<,10tpre1$$O$t722ee71-;4313<<;;;;:1711617-#.$,ur4,,,,,,,1554406767779rrreryrp",
"t8<&++>q2122112121222>>111:-##X$17<;;-;>>>>;&&<2;;;<,111<::=@@O=u024e8<;-=13711:;;=*;<311117-o.#,d4,,,,,,,1554447776777799r8errr",
"77<&++;w7122221122672,<21;::#@o$<;*&%##@+OOXo+++@++#+OOoooooooo*t02r07:;;;13711:;-=-;1116:17-#.#;t4>,4,,,12441246777773779q77err",
"87<&##;r4122242257061<11;-$#@@o@##OoOoooXXXXoOoOoOXX........XoX*rwrr771<4441171<:;;;;:<6<::7-#o#-t4>;,,,,1412,,46667767778878088",
"q81*#O;r113367776776<<<<;;;;#Oo@@####@oX.....oO@+$$#&&%&%%@##@X$eatr07267111737117:;;;<11:,1=#o#;t11>,>>,1111>,46799878778878q00",
"er7;%+>t1434777777771:;-;;:3$OO*:78443;&#####&;;<1>1,2,,,,,>$#X*0trree0071711737711::;:1<:,1=$o#;r714,>>115,1,,479999977787887et",
"eeq1#@,q333488066676<;:-;<<7&@O$rafsuuy016778rapatttuudyysu,$#X*0rrrreer8:713373161<,;;,<::3=#o#-t0421>>5,;>;;349prrr98789e887rr",
"rq8,#@,77777ee77762<;;-;:<37=#O%thfsaauutrrrrrrruaffdauyyau>#@X*0ttryire77131331711<,;;,:1::*#o#;t7741,,,>;>;;,4rppire89eeerrerq",
"yy4,#@>q8q8er8776<;;;;;<>,28=#O$rar811172747777770qq08884r0,%@o*8yurry9877713113341,,::,:337$#o#=q841122,,,>-,,4pppp99rrrrtpgsyp",
"ur41$@;8req887212;-<1;>>;177=$O$rrrr77777780987700877770qwr1#@X*7uuuppr978771,;:,13,<1:,:177-#o$=8q71141,,>;;>>49rp999yppaaghsas",
"y44,&@;tyqqq871<<-;<;;<>>117=$o$rree8787876897978777750rqqq,#@o=0tpppyrpr877,;;;;,31<<:>:717-#o#=er44411,>,;;>1599999yppasghggss",
"t74,*O-tytr8741>:=;;;,<;;<,3-$o&q9777977<<177777477000wr00q,#@X=0tpppyrpy9731;;;;,3,,,;,1338;#o#;i014411,;>;;,1179799paapyufgffa",
"au4,&O-ryyt966;:;&=<,>;;,131=$o#78777743137717778q5qqw08778<##X;0paretqerr732<;<>>>>-->,5515;#o#;7176611<;;:,11167870rppirrtyasa",
"su4,-O-yyrr9621<=&<<114117e7=#oO&4747774131117774rwqqq47888<$#.=0ptrqqqr9r81121<>=>>>-;,,135-@o#;77976111<:,111317778rprreqqtuuu",
"uu4-&@-tyr9811<1&-<217711381=$O#@&47774111<<1778w8qqrq877071$#.;rar0rrrr98776116,55>>--,,345:#o#1r7976111:,<1,1,16678trre88tuddu",
"ay4-@@-yyr97616;&<<<21<11343=$O$1;;74,,<111<33784q48qq777471$#X;rir0errre9843167,5>>>;;,,,44-#o$1r9777161<1,,,1<:6688trr888qyuud",
"uy3*%@-ry843111*&<1112713671=#O#1y883,,1<<111377w8488773414<$#o=war00eerw05514445>>>=>;>,>34-@o#;9r9q71111::;;:,:678err07007waaa",
"uu3*@O*1<;--=&*$+*;-=***$-$-&#o#:y0711,,<<<,<777488877333371&#X*iarreeee052>24555>>>>=>>>>,8-#X@=rr9777171<;;;;:;689rq45470wuuuu",
"uy,&@O#*$####+#+O+$$#+###$#$#Oo#,y771,;:111,<33748487371317<&#X#rrrrrree061>51225>>>>>>>>;,8-@.#;tr84177711<,;;:<79q844440rrttpu",
"ur:&@OOO@@O@O+++########+###Ooo#1u8411;,373,:137448431111781&#X#tt0rree87651>511-5>>>>>>,,>4;@o#;ute888733111<,1779e7774454qrtyt",
"u8:&@o@&===-,11211124470798<-#o#1y81,1;1431<<:1744443,331782&$o$te8rre5566,11,,5>,>,>>>>1<;1;O.$<arq8qq72<11113434q88544470rwpip",
"y4:*@o&4rttaduaafffsdadfapse,#X#3u831,,1311,<11743,,,3447461&#o&ee7ee06522<,>>>;>>>>>>;><<;7;o.#<yqq8rq74447411334888444244wsaup",
"71;=@o*raddgdfafffggggjgsgg83$X#1u811,1111,:111143:,,3444711&#o&r8690655211>>>->>;;;->>51<=*#O.#,yt8qq778877731334qq40444220yurr",
"33:=+o&rgattwprrrr78ewiippr31$o#1a714431<;::1:<133333377741<=#o&t72e765511>>=>==;;->>>,,1:$;-#.#;uere877qqq874314448q4445200wte8",
"71;=@O*rdw026522>,12777637r3:*X#3u714711,:,,:::;,:1377333111*#o&4411>>===>==*%*===&*--;-$#*71#o#;tttr778qqeq873347788478545ww044",
"21-*#O-7t021622211207777789::$X@3u73q811;;:;;:;:,:3333311111=%o%,--&+++%%%%++###@%%#%%@ooO#=;&o@;ryrr8q78qyr87774447744804848474",
"72;=@o-0t02266222227877788y:-$o@,y448711;;;;;;;:137333111113*#oo+ooX XXOOOOOooo+o+++oo.oO+@###o#,uauqq888rtq887777734444505q4847",
"21--%+-4t02202221267777747p7-#.#,y48r71<-;,:;:78771331<11371*#X XXXXXXXXO oXX XXoXXXXXoOOoooOoX$1asr8qq778ttq877337484445qqq5547"
};
